<svg xmlns="http://www.w3.org/2000/svg" xmlns:xlink="http://www.w3.org/1999/xlink" version="1.1" width="256" height="256" viewBox="0 0 256 256" xml:space="preserve">

<defs>
</defs>
<g style="stroke: #2D2D2D; stroke-width: 2; stroke-dasharray: none; stroke-linecap: butt; stroke-linejoin: miter; stroke-miterlimit: ; fill: none; fill-rule: nonzero; opacity: 1;" transform="translate(1.4065934065934016 1.4065934065934016) scale(2.81 2.81)" >
	<path stroke-width="1" d="M 64.125 32.859 c 0.124 -10.336 2.597 -19.647 7.537 -28.407 c 0.437 -0.775 0.31 -1.746 -0.313 -2.381 c -0.624 -0.636 -1.587 -0.784 -2.375 -0.364 c -8.98 4.814 -17.445 12.996 -23.835 23.038 c -2.169 3.408 -4.037 6.972 -5.608 10.61 c -2.978 -1.378 -6.235 -2.252 -9.665 -2.496 c 0.124 -10.337 2.597 -19.648 7.537 -28.407 c 0.437 -0.775 0.31 -1.746 -0.313 -2.381 c -0.623 -0.637 -1.591 -0.783 -2.374 -0.364 c -8.98 4.813 -17.445 12.995 -23.836 23.038 C 3.643 36.12 -0.202 48.495 0.05 59.6 l -0.018 0.297 C 0.016 60.149 0 60.402 0 60.659 c 0 5.001 1.367 9.932 3.954 14.261 c 0.002 0.003 0.004 0.006 0.006 0.009 C 9.053 83.445 17.992 88.53 27.871 88.53 c 6.459 0 12.408 -2.215 17.139 -5.917 c 4.883 3.823 10.895 5.917 17.119 5.917 C 77.497 88.53 90 76.027 90 60.659 C 90 45.962 78.564 33.886 64.125 32.859 z M 7.428 72.938 c -0.013 -0.023 -0.026 -0.048 -0.041 -0.071 C 5.171 69.159 4 64.938 4 60.659 c 0 -0.166 0.013 -0.328 0.023 -0.491 c 0.011 -0.152 0.021 -0.305 0.027 -0.458 c 0.001 -0.042 0.002 -0.085 0.001 -0.128 c -0.25 -10.19 3.47 -22.105 10.205 -32.69 c 4.603 -7.234 10.319 -13.429 16.499 -17.955 c -3.385 8.044 -5.025 16.721 -4.884 25.882 c 0.017 1.093 0.908 1.969 2 1.969 c 13.163 0 23.871 10.708 23.871 23.871 c 0 7.029 -3.056 13.357 -7.907 17.73 c -0.064 0.046 -0.121 0.102 -0.18 0.156 c -4.211 3.721 -9.737 5.985 -15.784 5.985 C 19.468 84.53 11.858 80.23 7.428 72.938 z M 62.129 84.53 c -5.096 0 -10.03 -1.636 -14.109 -4.645 c 4.778 -5.005 7.722 -11.777 7.722 -19.227 c 0 -9.772 -5.059 -18.38 -12.692 -23.358 c 1.517 -3.57 3.338 -7.068 5.465 -10.409 c 4.603 -7.233 10.319 -13.429 16.498 -17.955 c -3.386 8.045 -5.025 16.721 -4.884 25.882 c 0.018 1.093 0.907 1.969 2 1.969 C 75.291 36.788 86 47.497 86 60.659 S 75.291 84.53 62.129 84.53 z" style="stroke: none; stroke-width: 1; stroke-dasharray: none; stroke-linecap: butt; stroke-linejoin: miter; stroke-miterlimit: 10; fill: rgb(0,0,0); fill-rule: nonzero; opacity: 1;" transform=" matrix(1 0 0 1 0 0) " stroke-linecap="round" />
</g>
</svg>