<?xml version="1.0" encoding="utf-8"?>
<svg viewBox="13.74 41.219 467.741 96.176" width="467.741" height="96.176" xmlns="http://www.w3.org/2000/svg">
  <g id="svgGroup" stroke-linecap="round" fill-rule="evenodd" font-size="9pt" stroke="#000000" stroke-width="0.3mm" fill="none" style="stroke:#000000;stroke-width:0.3mm;fill:none" transform="matrix(1, 0, 0, 1, 26.649473190307617, 49.88160705566406)">
    <path d="M 6.944 61.181 L 6.944 66.667 L 0 66.667 L 0 0 L 7.5 0 L 7.5 29.931 Q 10.278 27.361 13.889 25.903 A 20.389 20.389 0 0 1 21.597 24.444 A 19.558 19.558 0 0 1 32.049 27.326 Q 36.736 30.208 39.549 35.069 Q 42.361 39.931 42.361 45.833 Q 42.361 51.736 39.549 56.597 Q 36.736 61.458 32.049 64.34 A 19.558 19.558 0 0 1 21.597 67.222 A 19.966 19.966 0 0 1 13.542 65.59 A 21.83 21.83 0 0 1 6.944 61.181 Z M 140.139 30 L 137.847 39.444 A 14.866 14.866 0 0 0 133.555 34.297 A 17.96 17.96 0 0 0 132.604 33.611 A 13.906 13.906 0 0 0 124.67 31.25 A 16.371 16.371 0 0 0 124.653 31.25 A 13.968 13.968 0 0 0 117.326 33.229 Q 114.028 35.208 112.083 38.507 A 14.155 14.155 0 0 0 110.139 45.818 A 16.277 16.277 0 0 0 110.139 45.833 A 14.214 14.214 0 0 0 112.083 53.125 Q 114.028 56.458 117.326 58.438 A 13.968 13.968 0 0 0 124.653 60.417 A 14.703 14.703 0 0 0 130.142 59.406 A 13.875 13.875 0 0 0 132.604 58.125 Q 136.111 55.833 137.847 52.222 L 140.139 61.667 A 23.62 23.62 0 0 1 133.928 65.594 A 26.953 26.953 0 0 1 133.194 65.903 A 22.354 22.354 0 0 1 125.004 67.498 A 25.371 25.371 0 0 1 124.722 67.5 A 22.048 22.048 0 0 1 116.016 65.79 A 21.243 21.243 0 0 1 113.611 64.583 A 22.364 22.364 0 0 1 105.625 56.736 A 20.643 20.643 0 0 1 102.639 45.833 A 20.643 20.643 0 0 1 105.625 34.931 A 22.364 22.364 0 0 1 113.611 27.083 A 21.568 21.568 0 0 1 124.341 24.17 A 25.392 25.392 0 0 1 124.722 24.167 A 22.58 22.58 0 0 1 132.447 25.478 A 21.528 21.528 0 0 1 133.194 25.764 A 24.337 24.337 0 0 1 138.96 29.028 A 22.406 22.406 0 0 1 140.139 30 Z M 85.278 30.486 L 85.278 25 L 92.222 25 L 92.222 66.667 L 85.278 66.667 L 85.278 61.181 Q 82.5 63.958 78.715 65.59 A 20.212 20.212 0 0 1 70.625 67.222 A 19.611 19.611 0 0 1 60.208 64.34 Q 55.486 61.458 52.674 56.597 Q 49.861 51.736 49.861 45.833 Q 49.861 39.931 52.674 35.069 Q 55.486 30.208 60.208 27.326 A 19.611 19.611 0 0 1 70.625 24.444 A 20.592 20.592 0 0 1 78.715 26.042 Q 82.5 27.639 85.278 30.486 Z M 156.806 66.667 L 149.306 66.667 L 149.306 0 L 156.806 0 L 156.806 66.667 Z M 185.972 66.667 L 176.458 66.667 L 157.639 43.75 L 173.125 25 L 181.806 25 L 166.597 43.194 L 185.972 66.667 Z M 20.625 60.417 A 13.483 13.483 0 0 0 27.813 58.438 A 14.775 14.775 0 0 0 32.951 53.16 Q 34.861 49.861 34.861 45.833 A 14.641 14.641 0 0 0 33.764 40.147 A 14.058 14.058 0 0 0 32.951 38.507 Q 31.042 35.208 27.813 33.229 A 13.483 13.483 0 0 0 20.625 31.25 A 13.483 13.483 0 0 0 13.437 33.229 A 14.775 14.775 0 0 0 8.299 38.507 Q 6.389 41.806 6.389 45.833 A 14.641 14.641 0 0 0 7.486 51.519 A 14.058 14.058 0 0 0 8.299 53.16 Q 10.208 56.458 13.438 58.438 A 13.483 13.483 0 0 0 20.625 60.417 Z M 71.597 60.417 A 13.483 13.483 0 0 0 78.785 58.438 A 14.775 14.775 0 0 0 83.924 53.16 Q 85.833 49.861 85.833 45.833 A 14.641 14.641 0 0 0 84.737 40.147 A 14.058 14.058 0 0 0 83.924 38.507 Q 82.014 35.208 78.785 33.229 A 13.483 13.483 0 0 0 71.597 31.25 A 13.483 13.483 0 0 0 64.41 33.229 A 14.775 14.775 0 0 0 59.271 38.507 Q 57.361 41.806 57.361 45.833 A 14.641 14.641 0 0 0 58.458 51.519 A 14.058 14.058 0 0 0 59.271 53.16 Q 61.181 56.458 64.41 58.438 A 13.483 13.483 0 0 0 71.597 60.417 Z M 193.594 67.085 A 5.541 5.541 0 0 0 195.764 67.5 A 6.853 6.853 0 0 0 196.128 67.49 A 5.13 5.13 0 0 0 199.653 65.938 A 5.247 5.247 0 0 0 200.799 64.193 A 5.675 5.675 0 0 0 201.181 62.083 A 6.853 6.853 0 0 0 201.18 62.048 A 5.292 5.292 0 0 0 199.653 58.229 Q 198.125 56.667 195.764 56.667 A 6.67 6.67 0 0 0 195.692 56.667 A 5.226 5.226 0 0 0 191.91 58.229 A 5.25 5.25 0 0 0 190.763 59.914 A 5.541 5.541 0 0 0 190.347 62.083 A 6.67 6.67 0 0 0 190.348 62.155 A 5.226 5.226 0 0 0 191.91 65.937 A 5.25 5.25 0 0 0 193.594 67.085 Z" vector-effect="non-scaling-stroke"/>
  </g>
  <g id="g-1" stroke-linecap="round" fill-rule="evenodd" font-size="9pt" stroke="#4f0985" stroke-width="0.3mm" fill="none" style="stroke:#4f0985;stroke-width:0.3mm;fill:none" transform="matrix(1, 0, 0, 1, 235.9986877441406, 49.85377502441406)">
    <path d="M 59.723 66.667 L 52.223 66.667 L 52.223 25 L 59.168 25 L 59.168 31.736 Q 61.459 28.056 65.105 26.111 A 16.492 16.492 0 0 1 72.987 24.167 Q 77.431 24.167 81.216 26.354 A 16.308 16.308 0 0 1 86.71 31.61 A 19.78 19.78 0 0 1 87.362 32.674 A 17.309 17.309 0 0 1 89.271 37.882 Q 89.709 40.056 89.723 42.547 A 29.342 29.342 0 0 1 89.723 42.708 L 89.723 66.667 L 82.223 66.667 L 82.223 43.75 A 13.779 13.779 0 0 0 79.272 35.035 A 9.61 9.61 0 0 0 72.312 31.313 A 13.889 13.889 0 0 0 70.973 31.25 A 11.14 11.14 0 0 0 63.498 34.109 A 14.4 14.4 0 0 0 63.161 34.41 Q 59.723 37.569 59.723 43.542 L 59.723 66.667 Z M 134.168 29.931 L 134.168 0 L 141.668 0 L 141.668 66.667 L 134.723 66.667 L 134.723 61.181 Q 131.945 63.958 128.161 65.59 A 20.212 20.212 0 0 1 120.07 67.222 A 19.611 19.611 0 0 1 109.654 64.34 Q 104.931 61.458 102.119 56.597 Q 99.306 51.736 99.306 45.833 Q 99.306 39.931 102.119 35.069 Q 104.931 30.208 109.654 27.326 A 19.611 19.611 0 0 1 120.07 24.444 A 20.389 20.389 0 0 1 127.779 25.903 A 20.774 20.774 0 0 1 134.168 29.931 Z M 42.223 44.861 L 42.223 47.917 L 15.001 47.917 Q 13.195 47.917 11.32 47.778 A 47.061 47.061 0 0 1 7.64 47.361 A 14.686 14.686 0 0 0 12.674 56.667 A 14.906 14.906 0 0 0 22.848 60.417 A 15.465 15.465 0 0 0 30.209 58.611 A 15.539 15.539 0 0 0 34.868 54.898 A 14.892 14.892 0 0 0 35.695 53.819 L 37.779 62.361 A 22.491 22.491 0 0 1 31.298 66.017 A 25.409 25.409 0 0 1 30.938 66.146 A 24.427 24.427 0 0 1 22.812 67.5 A 27.715 27.715 0 0 1 22.779 67.5 A 25.038 25.038 0 0 1 15.594 66.499 A 21.908 21.908 0 0 1 11.077 64.583 A 21.445 21.445 0 0 1 2.952 56.632 Q 0.001 51.597 0.001 45.417 A 21.055 21.055 0 0 1 1.739 36.851 A 20.433 20.433 0 0 1 2.848 34.687 Q 5.695 29.861 10.522 27.014 Q 15.348 24.167 21.181 24.167 A 20.872 20.872 0 0 1 31.737 26.91 A 21.087 21.087 0 0 1 39.376 34.306 Q 42.223 38.958 42.223 44.861 Z M 195.904 79.167 L 187.501 79.167 A 69.047 69.047 0 0 0 196.424 60.729 A 69.892 69.892 0 0 0 199.583 39.93 A 77.949 77.949 0 0 0 199.584 39.583 A 70.799 70.799 0 0 0 197.251 21.239 A 65.586 65.586 0 0 0 196.424 18.403 A 69.172 69.172 0 0 0 187.501 0 L 195.904 0 A 75.883 75.883 0 0 1 204.168 18.715 A 74.387 74.387 0 0 1 207.084 39.583 A 74.387 74.387 0 0 1 204.168 60.451 A 75.883 75.883 0 0 1 195.904 79.167 Z M 175.418 79.167 L 167.015 79.167 A 78.467 78.467 0 0 1 158.786 60.451 A 73.571 73.571 0 0 1 155.834 39.583 A 73.571 73.571 0 0 1 158.786 18.715 A 78.467 78.467 0 0 1 167.015 0 L 175.418 0 A 69.172 69.172 0 0 0 166.494 18.403 Q 163.334 28.403 163.334 39.583 A 70.195 70.195 0 0 0 166.252 59.944 A 66.362 66.362 0 0 0 166.494 60.729 A 69.047 69.047 0 0 0 175.418 79.167 Z M 121.043 60.417 A 13.483 13.483 0 0 0 128.23 58.438 A 14.775 14.775 0 0 0 133.369 53.16 Q 135.279 49.861 135.279 45.833 A 14.641 14.641 0 0 0 134.182 40.147 A 14.058 14.058 0 0 0 133.369 38.507 Q 131.459 35.208 128.23 33.229 A 13.483 13.483 0 0 0 121.043 31.25 A 13.483 13.483 0 0 0 113.855 33.229 A 14.775 14.775 0 0 0 108.716 38.507 Q 106.806 41.806 106.806 45.833 A 14.641 14.641 0 0 0 107.903 51.519 A 14.058 14.058 0 0 0 108.716 53.16 Q 110.626 56.458 113.855 58.438 A 13.483 13.483 0 0 0 121.043 60.417 Z M 15.001 41.667 L 28.82 41.667 A 43.394 43.394 0 0 1 31.841 41.771 A 144.292 144.292 0 0 1 34.862 42.014 Q 33.89 37.153 30.001 33.993 Q 26.112 30.833 21.181 30.833 A 13.025 13.025 0 0 0 12.293 34.201 A 15.371 15.371 0 0 0 8.539 39.072 A 14.677 14.677 0 0 0 7.431 42.292 Q 11.181 41.667 15.001 41.667 Z M 229.306 72.917 L 220.973 72.917 A 31.162 31.162 0 0 0 225.114 66.077 A 36.554 36.554 0 0 0 226.008 63.889 A 29.672 29.672 0 0 0 227.545 57.671 A 40.125 40.125 0 0 0 227.918 52.083 L 235.418 52.083 A 38.116 38.116 0 0 1 234.381 61.072 A 34.717 34.717 0 0 1 233.786 63.229 A 39.777 39.777 0 0 1 229.306 72.917 Z M 229.498 38.335 A 5.541 5.541 0 0 0 231.668 38.75 A 6.853 6.853 0 0 0 232.031 38.74 A 5.13 5.13 0 0 0 235.556 37.188 A 5.247 5.247 0 0 0 236.702 35.443 A 5.675 5.675 0 0 0 237.084 33.333 A 6.853 6.853 0 0 0 237.084 33.298 A 5.292 5.292 0 0 0 235.556 29.479 Q 234.029 27.917 231.668 27.917 A 6.67 6.67 0 0 0 231.596 27.917 A 5.226 5.226 0 0 0 227.813 29.479 A 5.25 5.25 0 0 0 226.666 31.164 A 5.541 5.541 0 0 0 226.251 33.333 A 6.67 6.67 0 0 0 226.251 33.405 A 5.226 5.226 0 0 0 227.813 37.188 A 5.25 5.25 0 0 0 229.498 38.335 Z" vector-effect="non-scaling-stroke"/>
  </g>
</svg>