<?xml version="1.0" encoding="utf-8"?>
<svg viewBox="20.312 41.219 494.025 93.787" width="494.025" height="93.787" xmlns="http://www.w3.org/2000/svg">
  <g id="svgGroup" stroke-linecap="round" fill-rule="evenodd" font-size="9pt" stroke="#ff7c2a" stroke-width="0.3mm" fill="none" style="stroke:#ff7c2a;stroke-width:0.3mm;fill:none" transform="matrix(1, 0, 0, 1, 28.8223876953125, 62.46662139892578)">
    <path d="M 41.667 33.889 L 41.667 40.694 L 0 20.417 L 41.667 0 L 41.667 6.667 L 20.833 16.736 A 115.522 115.522 0 0 1 17.799 18.09 A 131.145 131.145 0 0 1 16.736 18.542 L 12.431 20.347 A 331.853 331.853 0 0 1 16.736 22.049 A 56.619 56.619 0 0 1 20.344 23.647 A 51.342 51.342 0 0 1 20.833 23.889 L 41.667 33.889 Z" vector-effect="non-scaling-stroke"/>
  </g>
  <g id="g-1" stroke-linecap="round" fill-rule="evenodd" font-size="9pt" stroke="#000000" stroke-width="0.3mm" fill="none" style="stroke:#000000;stroke-width:0.3mm;fill:none" transform="matrix(1, 0, 0, 1, 77.4638442993164, 50.4248046875)">
    <path d="M 232.639 67.502 L 201.806 67.502 L 201.806 5.002 L 232.639 5.002 L 232.639 12.086 L 209.722 12.086 L 209.722 25.419 L 227.778 25.419 L 227.778 32.502 L 209.722 32.502 L 209.722 60.419 L 232.639 60.419 L 232.639 67.502 Z M 125.972 67.502 L 118.472 67.502 L 118.472 25.836 L 125.417 25.836 L 125.417 32.572 Q 127.708 28.891 131.354 26.947 A 16.492 16.492 0 0 1 139.236 25.002 Q 143.681 25.002 147.465 27.19 A 16.308 16.308 0 0 1 152.959 32.446 A 19.78 19.78 0 0 1 153.611 33.509 A 17.309 17.309 0 0 1 155.52 38.718 Q 155.958 40.892 155.972 43.383 A 29.342 29.342 0 0 1 155.972 43.544 L 155.972 67.502 L 148.472 67.502 L 148.472 44.586 A 13.779 13.779 0 0 0 145.521 35.87 A 9.61 9.61 0 0 0 138.561 32.149 A 13.889 13.889 0 0 0 137.222 32.086 A 11.14 11.14 0 0 0 129.748 34.944 A 14.4 14.4 0 0 0 129.41 35.245 Q 125.972 38.405 125.972 44.377 L 125.972 67.502 Z M 250.972 67.502 L 243.472 67.502 L 243.472 25.836 L 250.417 25.836 L 250.417 32.572 Q 252.708 28.891 256.354 26.947 A 16.492 16.492 0 0 1 264.236 25.002 Q 268.681 25.002 272.465 27.19 A 16.308 16.308 0 0 1 277.959 32.446 A 19.78 19.78 0 0 1 278.611 33.509 A 17.309 17.309 0 0 1 280.52 38.718 Q 280.958 40.892 280.972 43.383 A 29.342 29.342 0 0 1 280.972 43.544 L 280.972 67.502 L 273.472 67.502 L 273.472 44.586 A 13.779 13.779 0 0 0 270.521 35.87 A 9.61 9.61 0 0 0 263.561 32.149 A 13.889 13.889 0 0 0 262.222 32.086 A 11.14 11.14 0 0 0 254.748 34.944 A 14.4 14.4 0 0 0 254.41 35.245 Q 250.972 38.405 250.972 44.377 L 250.972 67.502 Z M 325.417 30.766 L 325.417 0.836 L 332.917 0.836 L 332.917 67.502 L 325.972 67.502 L 325.972 62.016 Q 323.194 64.794 319.41 66.426 A 20.212 20.212 0 0 1 311.319 68.058 A 19.611 19.611 0 0 1 300.903 65.176 Q 296.181 62.294 293.368 57.433 Q 290.556 52.572 290.556 46.669 Q 290.556 40.766 293.368 35.905 Q 296.181 31.044 300.903 28.162 A 19.611 19.611 0 0 1 311.319 25.28 A 20.389 20.389 0 0 1 319.028 26.739 A 20.774 20.774 0 0 1 325.417 30.766 Z M 16.944 67.502 L 9.444 67.502 L 9.444 32.086 L 0 32.086 L 0 25.836 L 9.653 25.836 L 9.653 13.891 A 18.32 18.32 0 0 1 10.086 9.777 Q 10.739 6.947 12.371 4.912 A 10.917 10.917 0 0 1 13.681 3.544 A 14.031 14.031 0 0 1 23.264 0.002 A 19.365 19.365 0 0 1 26.956 0.368 A 21.821 21.821 0 0 1 27.535 0.489 A 13.597 13.597 0 0 1 31.667 2.155 L 29.861 9.447 A 10.547 10.547 0 0 0 27.357 7.393 A 8.455 8.455 0 0 0 23.056 6.252 Q 20.694 6.252 18.715 7.85 A 4.346 4.346 0 0 0 17.509 9.468 Q 16.736 11.166 16.736 14.03 L 16.736 25.836 L 27.083 25.836 L 27.083 32.086 L 16.944 32.086 L 16.944 67.502 Z M 180.833 67.502 L 173.333 67.502 L 173.333 32.086 L 163.889 32.086 L 163.889 25.836 L 173.542 25.836 L 173.542 11.947 L 180.625 11.947 L 180.625 25.836 L 190.972 25.836 L 190.972 32.086 L 180.833 32.086 L 180.833 67.502 Z M 86.111 68.336 Q 80.069 68.336 75.069 65.419 Q 70.069 62.502 67.118 57.572 A 20.827 20.827 0 0 1 64.167 46.669 A 21.243 21.243 0 0 1 65.758 38.413 A 20.362 20.362 0 0 1 67.118 35.732 A 22.175 22.175 0 0 1 75.069 27.919 A 21.515 21.515 0 0 1 86.111 25.002 A 22.032 22.032 0 0 1 94.283 26.501 A 20.878 20.878 0 0 1 97.187 27.919 A 22.261 22.261 0 0 1 105.104 35.732 Q 108.056 40.627 108.056 46.669 A 20.827 20.827 0 0 1 105.104 57.572 A 22.17 22.17 0 0 1 97.187 65.419 A 21.357 21.357 0 0 1 86.587 68.331 A 25.332 25.332 0 0 1 86.111 68.336 Z M 43.333 67.502 L 35.833 67.502 L 35.833 25.836 L 42.778 25.836 L 42.778 33.475 A 16.858 16.858 0 0 1 48.681 27.607 A 15.358 15.358 0 0 1 54.038 25.689 A 20.481 20.481 0 0 1 57.431 25.419 L 59.306 32.919 Q 58.069 32.528 56.465 32.504 A 14.146 14.146 0 0 0 56.25 32.502 Q 50.417 32.502 46.875 36.218 Q 43.333 39.933 43.333 46.808 L 43.333 67.502 Z M 86.111 61.252 A 14.071 14.071 0 0 0 91.696 60.151 A 13.557 13.557 0 0 0 93.403 59.273 Q 96.667 57.294 98.611 53.995 A 14.155 14.155 0 0 0 100.556 46.685 A 16.277 16.277 0 0 0 100.556 46.669 Q 100.556 42.641 98.611 39.343 Q 96.667 36.044 93.403 34.065 A 13.762 13.762 0 0 0 86.237 32.086 A 16.321 16.321 0 0 0 86.111 32.086 A 14.071 14.071 0 0 0 80.526 33.187 A 13.557 13.557 0 0 0 78.819 34.065 Q 75.556 36.044 73.611 39.343 A 14.155 14.155 0 0 0 71.667 46.653 A 16.277 16.277 0 0 0 71.667 46.669 Q 71.667 50.697 73.611 53.995 Q 75.556 57.294 78.819 59.273 A 13.762 13.762 0 0 0 85.985 61.252 A 16.321 16.321 0 0 0 86.111 61.252 Z M 312.292 61.252 A 13.483 13.483 0 0 0 319.479 59.273 A 14.775 14.775 0 0 0 324.618 53.995 Q 326.528 50.697 326.528 46.669 A 14.641 14.641 0 0 0 325.431 40.983 A 14.058 14.058 0 0 0 324.618 39.343 Q 322.708 36.044 319.479 34.065 A 13.483 13.483 0 0 0 312.292 32.086 A 13.483 13.483 0 0 0 305.104 34.065 A 14.775 14.775 0 0 0 299.965 39.343 Q 298.056 42.641 298.056 46.669 A 14.641 14.641 0 0 0 299.152 52.355 A 14.058 14.058 0 0 0 299.965 53.995 Q 301.875 57.294 305.104 59.273 A 13.483 13.483 0 0 0 312.292 61.252 Z" vector-effect="non-scaling-stroke"/>
  </g>
  <g id="g-2" stroke-linecap="round" fill-rule="evenodd" font-size="9pt" stroke="#ff7c2a" stroke-width="0.3mm" fill="none" style="stroke:#ff7c2a;stroke-width:0.3mm;fill:none" transform="matrix(1, 0, 0, 1, 419.37127685546875, 47.632747650146484)">
    <path d="M 7.083 79.167 L 0 79.167 L 37.917 0 L 45 0 L 7.083 79.167 Z M 87.083 35.278 L 45.417 55.694 L 45.417 49.028 L 66.25 38.958 A 55.243 55.243 0 0 1 69.812 37.337 A 60.983 60.983 0 0 1 70.347 37.118 Q 72.5 36.25 74.653 35.347 A 167.32 167.32 0 0 1 70.347 33.611 A 123.142 123.142 0 0 1 67.235 32.257 A 108.275 108.275 0 0 1 66.25 31.806 L 45.417 21.806 L 45.417 15 L 87.083 35.278 Z" vector-effect="non-scaling-stroke"/>
  </g>
</svg>