<?xml version="1.0" encoding="utf-8"?>
<svg viewBox="84.231 41.219 382.317 97.371" width="382.317" height="97.371" xmlns="http://www.w3.org/2000/svg">
  <g id="g-1" stroke-linecap="round" fill-rule="evenodd" font-size="9pt" stroke="#000000" stroke-width="0.3mm" fill="none" style="stroke:#000000;stroke-width:0.3mm;fill:none" transform="matrix(1, 0, 0, 1, 147.59042358398438, 44.855735778808594)">
    <path d="M 187.361 48.958 L 187.361 25 L 194.861 25 L 194.861 47.917 A 13.779 13.779 0 0 0 197.812 56.632 A 9.61 9.61 0 0 0 204.772 60.354 A 13.889 13.889 0 0 0 206.111 60.417 A 11.14 11.14 0 0 0 213.586 57.558 A 14.4 14.4 0 0 0 213.924 57.257 Q 217.361 54.097 217.361 48.125 L 217.361 25 L 224.861 25 L 224.861 66.667 L 217.917 66.667 L 217.917 59.931 Q 215.625 63.611 211.979 65.556 A 16.492 16.492 0 0 1 204.097 67.5 Q 199.722 67.5 195.903 65.313 A 16.165 16.165 0 0 1 190.375 60.03 A 19.63 19.63 0 0 1 189.722 58.958 A 17.707 17.707 0 0 1 187.751 53.423 A 24.401 24.401 0 0 1 187.361 48.958 Z M 167.361 29.931 L 167.361 0 L 174.861 0 L 174.861 66.667 L 167.917 66.667 L 167.917 61.181 Q 165.139 63.958 161.354 65.59 A 20.212 20.212 0 0 1 153.264 67.222 A 19.611 19.611 0 0 1 142.847 64.34 Q 138.125 61.458 135.313 56.597 Q 132.5 51.736 132.5 45.833 Q 132.5 39.931 135.313 35.069 Q 138.125 30.208 142.847 27.326 A 19.611 19.611 0 0 1 153.264 24.444 A 20.389 20.389 0 0 1 160.972 25.903 A 20.774 20.774 0 0 1 167.361 29.931 Z M 7.5 87.5 L 0 87.5 L 0 25 L 6.944 25 L 6.944 30.486 Q 9.792 27.639 13.542 26.042 A 20.276 20.276 0 0 1 21.329 24.446 A 23.077 23.077 0 0 1 21.597 24.444 A 19.558 19.558 0 0 1 32.049 27.326 Q 36.736 30.208 39.549 35.069 Q 42.361 39.931 42.361 45.833 Q 42.361 51.736 39.549 56.597 Q 36.736 61.458 32.049 64.34 A 19.558 19.558 0 0 1 21.597 67.222 A 20.389 20.389 0 0 1 13.889 65.764 A 20.774 20.774 0 0 1 7.5 61.736 L 7.5 87.5 Z M 272.778 30 L 270.486 39.444 A 14.866 14.866 0 0 0 266.194 34.297 A 17.96 17.96 0 0 0 265.243 33.611 A 13.906 13.906 0 0 0 257.309 31.25 A 16.371 16.371 0 0 0 257.292 31.25 A 13.968 13.968 0 0 0 249.965 33.229 Q 246.667 35.208 244.722 38.507 A 14.155 14.155 0 0 0 242.778 45.818 A 16.277 16.277 0 0 0 242.778 45.833 A 14.214 14.214 0 0 0 244.722 53.125 Q 246.667 56.458 249.965 58.438 A 13.968 13.968 0 0 0 257.292 60.417 A 14.703 14.703 0 0 0 262.781 59.406 A 13.875 13.875 0 0 0 265.243 58.125 Q 268.75 55.833 270.486 52.222 L 272.778 61.667 A 23.62 23.62 0 0 1 266.567 65.594 A 26.953 26.953 0 0 1 265.833 65.903 A 22.354 22.354 0 0 1 257.643 67.498 A 25.371 25.371 0 0 1 257.361 67.5 A 22.048 22.048 0 0 1 248.655 65.79 A 21.243 21.243 0 0 1 246.25 64.583 A 22.364 22.364 0 0 1 238.264 56.736 A 20.643 20.643 0 0 1 235.278 45.833 A 20.643 20.643 0 0 1 238.264 34.931 A 22.364 22.364 0 0 1 246.25 27.083 A 21.568 21.568 0 0 1 256.98 24.17 A 25.392 25.392 0 0 1 257.361 24.167 A 22.58 22.58 0 0 1 265.086 25.478 A 21.528 21.528 0 0 1 265.833 25.764 A 24.337 24.337 0 0 1 271.599 29.028 A 22.406 22.406 0 0 1 272.778 30 Z M 294.306 66.667 L 286.806 66.667 L 286.806 31.25 L 277.361 31.25 L 277.361 25 L 287.014 25 L 287.014 11.111 L 294.097 11.111 L 294.097 25 L 304.444 25 L 304.444 31.25 L 294.306 31.25 L 294.306 66.667 Z M 103.056 67.5 Q 97.014 67.5 92.014 64.583 Q 87.014 61.667 84.062 56.736 A 20.827 20.827 0 0 1 81.111 45.833 A 21.243 21.243 0 0 1 82.703 37.578 A 20.362 20.362 0 0 1 84.062 34.896 A 22.175 22.175 0 0 1 92.014 27.083 A 21.515 21.515 0 0 1 103.056 24.167 A 22.032 22.032 0 0 1 111.228 25.665 A 20.878 20.878 0 0 1 114.132 27.083 A 22.261 22.261 0 0 1 122.049 34.896 Q 125 39.792 125 45.833 A 20.827 20.827 0 0 1 122.049 56.736 A 22.17 22.17 0 0 1 114.132 64.583 A 21.357 21.357 0 0 1 103.531 67.496 A 25.332 25.332 0 0 1 103.056 67.5 Z M 60.278 66.667 L 52.778 66.667 L 52.778 25 L 59.722 25 L 59.722 32.639 A 16.858 16.858 0 0 1 65.625 26.771 A 15.358 15.358 0 0 1 70.982 24.854 A 20.481 20.481 0 0 1 74.375 24.583 L 76.25 32.083 Q 75.013 31.693 73.41 31.668 A 14.146 14.146 0 0 0 73.194 31.667 Q 67.361 31.667 63.819 35.382 Q 60.278 39.097 60.278 45.972 L 60.278 66.667 Z M 103.056 60.417 A 14.071 14.071 0 0 0 108.641 59.315 A 13.557 13.557 0 0 0 110.347 58.437 Q 113.611 56.458 115.556 53.16 A 14.155 14.155 0 0 0 117.5 45.849 A 16.277 16.277 0 0 0 117.5 45.833 Q 117.5 41.806 115.556 38.507 Q 113.611 35.208 110.347 33.229 A 13.762 13.762 0 0 0 103.181 31.25 A 16.321 16.321 0 0 0 103.056 31.25 A 14.071 14.071 0 0 0 97.471 32.352 A 13.557 13.557 0 0 0 95.764 33.229 Q 92.5 35.208 90.556 38.507 A 14.155 14.155 0 0 0 88.611 45.818 A 16.277 16.277 0 0 0 88.611 45.833 Q 88.611 49.861 90.556 53.16 Q 92.5 56.458 95.764 58.438 A 13.762 13.762 0 0 0 102.93 60.416 A 16.321 16.321 0 0 0 103.056 60.417 Z M 20.625 60.417 A 13.483 13.483 0 0 0 27.813 58.438 A 14.775 14.775 0 0 0 32.951 53.16 Q 34.861 49.861 34.861 45.833 A 14.641 14.641 0 0 0 33.764 40.147 A 14.058 14.058 0 0 0 32.951 38.507 Q 31.042 35.208 27.813 33.229 A 13.483 13.483 0 0 0 20.625 31.25 A 13.483 13.483 0 0 0 13.437 33.229 A 14.775 14.775 0 0 0 8.299 38.507 Q 6.389 41.806 6.389 45.833 A 14.641 14.641 0 0 0 7.486 51.519 A 14.058 14.058 0 0 0 8.299 53.16 Q 10.208 56.458 13.438 58.438 A 13.483 13.483 0 0 0 20.625 60.417 Z M 154.236 60.417 A 13.483 13.483 0 0 0 161.424 58.438 A 14.775 14.775 0 0 0 166.563 53.16 Q 168.472 49.861 168.472 45.833 A 14.641 14.641 0 0 0 167.376 40.147 A 14.058 14.058 0 0 0 166.563 38.507 Q 164.653 35.208 161.424 33.229 A 13.483 13.483 0 0 0 154.236 31.25 A 13.483 13.483 0 0 0 147.049 33.229 A 14.775 14.775 0 0 0 141.91 38.507 Q 140 41.806 140 45.833 A 14.641 14.641 0 0 0 141.097 51.519 A 14.058 14.058 0 0 0 141.91 53.16 Q 143.819 56.458 147.049 58.438 A 13.483 13.483 0 0 0 154.236 60.417 Z" vector-effect="non-scaling-stroke"/>
  </g>
  <g id="svgGroup" stroke-linecap="round" fill-rule="evenodd" font-size="9pt" stroke="#f72525" stroke-width="0.3mm" fill="none" style="stroke:#f72525;stroke-width:0.3mm;fill:none" transform="matrix(1, 0, 0, 1, 95.19874572753906, 70.60879516601562)">
    <path d="M 41.667 20.278 L 0 40.694 L 0 34.028 L 20.833 23.958 A 55.243 55.243 0 0 1 24.396 22.337 A 60.983 60.983 0 0 1 24.931 22.118 Q 27.083 21.25 29.236 20.347 A 167.32 167.32 0 0 1 24.931 18.611 A 123.142 123.142 0 0 1 21.819 17.257 A 108.275 108.275 0 0 1 20.833 16.806 L 0 6.806 L 0 0 L 41.667 20.278 Z" vector-effect="non-scaling-stroke"/>
  </g>
</svg>