<?xml version="1.0" encoding="utf-8"?>
<svg viewBox="13.74 41.219 612.902 97.968" width="612.902" height="97.968" xmlns="http://www.w3.org/2000/svg">
  <g id="svgGroup" stroke-linecap="round" fill-rule="evenodd" font-size="9pt" stroke="#004ef7" stroke-width="0.3mm" fill="none" style="stroke:#004ef7;stroke-width:0.3mm;fill:none" transform="matrix(1, 0, 0, 1, 24.2286376953125, 47.81344223022461)">
    <path d="M 26.25 73.75 L 26.25 80 A 24.629 24.629 0 0 1 20.243 79.29 A 21.18 21.18 0 0 1 16.528 77.986 A 15.865 15.865 0 0 1 9.583 71.875 A 15.986 15.986 0 0 1 7.588 66.955 Q 7.122 64.946 7.034 62.619 A 29.05 29.05 0 0 1 7.014 61.528 A 37.28 37.28 0 0 1 7.356 56.412 A 34.113 34.113 0 0 1 7.431 55.903 A 35.472 35.472 0 0 0 7.821 51.962 A 30.973 30.973 0 0 0 7.847 50.694 Q 7.847 47.886 7.057 45.978 A 6.579 6.579 0 0 0 5.868 44.063 A 13.306 13.306 0 0 0 4.03 42.401 Q 3.044 41.654 1.808 40.948 A 29.231 29.231 0 0 0 0 40 A 27.68 27.68 0 0 0 2.448 38.674 Q 4.569 37.373 5.868 35.938 A 6.802 6.802 0 0 0 7.221 33.591 Q 7.583 32.559 7.736 31.288 A 16.644 16.644 0 0 0 7.847 29.306 A 33.102 33.102 0 0 0 7.613 25.438 A 38.086 38.086 0 0 0 7.431 24.097 Q 7.014 21.389 7.014 18.472 A 25.524 25.524 0 0 1 7.375 14.05 Q 7.808 11.591 8.759 9.588 A 14.176 14.176 0 0 1 9.583 8.09 A 15.932 15.932 0 0 1 16.528 2.014 A 22.15 22.15 0 0 1 23.947 0.097 A 26.809 26.809 0 0 1 26.25 0 L 26.25 6.25 A 17.077 17.077 0 0 0 20.451 7.257 A 8.806 8.806 0 0 0 16.327 10.348 A 11.167 11.167 0 0 0 15.868 11.007 Q 14.132 13.696 14.098 18.887 A 31.834 31.834 0 0 0 14.097 19.097 Q 14.097 22.014 14.514 24.514 Q 14.931 27.014 14.931 29.514 A 17.518 17.518 0 0 1 14.734 32.225 Q 14.358 34.621 13.264 36.285 A 9.798 9.798 0 0 1 8.819 40 Q 11.597 41.111 13.264 43.681 Q 14.653 45.822 14.884 49.121 A 19.519 19.519 0 0 1 14.931 50.486 Q 14.931 52.986 14.514 55.486 Q 14.097 57.986 14.097 60.903 Q 14.097 66.181 15.868 68.958 A 9.899 9.899 0 0 0 17.881 71.279 A 8.452 8.452 0 0 0 20.451 72.743 A 17.077 17.077 0 0 0 26.25 73.75 Z" vector-effect="non-scaling-stroke"/>
  </g>
  <g id="g-2" stroke-linecap="round" fill-rule="evenodd" font-size="9pt" stroke="#000000" stroke-width="0.3mm" fill="none" style="stroke:#000000;stroke-width:0.3mm;fill:none" transform="matrix(1, 0, 0, 1, 55.322662353515625, 54.61912155151367)">
    <path d="M 206.389 55.556 L 198.889 55.556 L 198.889 13.889 L 205.833 13.889 L 205.833 19.861 A 14.792 14.792 0 0 1 210.347 15.463 A 14.433 14.433 0 0 1 211.632 14.757 A 16.732 16.732 0 0 1 219.028 13.056 Q 223.264 13.056 226.806 15.035 A 15.32 15.32 0 0 1 232.5 20.556 Q 234.931 16.806 238.785 14.931 Q 242.639 13.056 246.944 13.056 A 17.239 17.239 0 0 1 255.59 15.278 A 16.606 16.606 0 0 1 261.84 21.493 A 16.892 16.892 0 0 1 263.892 27.347 A 22.181 22.181 0 0 1 264.167 30.903 L 264.167 55.556 L 256.667 55.556 L 256.667 31.806 A 15.996 15.996 0 0 0 256.327 28.401 Q 255.62 25.154 253.438 23.16 A 10.733 10.733 0 0 0 245.972 20.208 A 11.686 11.686 0 0 0 240.868 21.389 A 9.465 9.465 0 0 0 237.144 24.608 A 11.515 11.515 0 0 0 236.84 25.069 Q 235.537 27.154 235.321 30.302 A 18.897 18.897 0 0 0 235.278 31.597 L 235.278 55.556 L 227.778 55.556 L 227.778 31.806 Q 227.778 27.847 226.215 25.278 A 10.761 10.761 0 0 0 223.976 22.623 A 9.709 9.709 0 0 0 222.188 21.424 A 10.999 10.999 0 0 0 217.74 20.159 A 10.725 10.725 0 0 0 217.083 20.139 A 11.459 11.459 0 0 0 212.357 21.176 A 13.277 13.277 0 0 0 212.049 21.319 Q 209.583 22.5 207.986 25 Q 206.656 27.082 206.434 30.271 A 19.064 19.064 0 0 0 206.389 31.597 L 206.389 55.556 Z M 44.167 76.389 L 36.042 76.389 L 49.583 49.444 L 31.944 13.889 L 40.417 13.889 L 49.306 31.944 Q 50.486 34.375 51.597 36.736 A 39.557 39.557 0 0 1 52.431 38.644 Q 52.865 39.708 53.299 40.921 A 73.122 73.122 0 0 1 53.819 42.431 Q 54.723 39.878 55.566 37.876 A 53.672 53.672 0 0 1 56.076 36.701 A 81.907 81.907 0 0 1 58.403 31.944 L 67.431 13.889 L 75.417 13.889 L 44.167 76.389 Z M 188.889 33.75 L 188.889 36.806 L 161.667 36.806 Q 159.861 36.806 157.986 36.667 A 47.061 47.061 0 0 1 154.306 36.25 A 14.686 14.686 0 0 0 159.34 45.556 A 14.906 14.906 0 0 0 169.514 49.306 A 15.465 15.465 0 0 0 176.875 47.5 A 15.539 15.539 0 0 0 181.533 43.787 A 14.892 14.892 0 0 0 182.361 42.708 L 184.444 51.25 A 22.491 22.491 0 0 1 177.964 54.905 A 25.409 25.409 0 0 1 177.604 55.035 A 24.427 24.427 0 0 1 169.478 56.389 A 27.715 27.715 0 0 1 169.444 56.389 A 25.038 25.038 0 0 1 162.26 55.388 A 21.908 21.908 0 0 1 157.743 53.472 A 21.445 21.445 0 0 1 149.618 45.521 Q 146.667 40.486 146.667 34.306 A 21.055 21.055 0 0 1 148.404 25.739 A 20.433 20.433 0 0 1 149.514 23.576 Q 152.361 18.75 157.188 15.903 Q 162.014 13.056 167.847 13.056 A 20.872 20.872 0 0 1 178.403 15.799 A 21.087 21.087 0 0 1 186.042 23.194 Q 188.889 27.847 188.889 33.75 Z M 0 51.111 L 2.083 42.917 A 15.224 15.224 0 0 0 6.291 47.559 A 14.789 14.789 0 0 0 7.083 48.09 A 12.105 12.105 0 0 0 13.611 50 A 10.847 10.847 0 0 0 15.488 49.848 Q 16.501 49.67 17.299 49.282 A 4.948 4.948 0 0 0 18.611 48.368 A 5.362 5.362 0 0 0 20.277 44.485 A 6.618 6.618 0 0 0 20.278 44.375 A 6.516 6.516 0 0 0 20.109 42.842 A 4.009 4.009 0 0 0 18.507 40.417 Q 17.232 39.517 16.156 39.013 A 8.667 8.667 0 0 0 15.347 38.681 L 9.722 36.528 A 22.738 22.738 0 0 1 8.516 35.989 Q 7.96 35.723 7.341 35.397 A 50.115 50.115 0 0 1 6.042 34.688 A 10.847 10.847 0 0 1 3.234 32.384 A 13.429 13.429 0 0 1 2.292 31.181 Q 0.864 29.132 0.712 25.973 A 15.98 15.98 0 0 1 0.694 25.208 Q 0.694 21.875 2.292 19.097 Q 3.889 16.319 6.806 14.688 A 12.633 12.633 0 0 1 10.97 13.266 A 16.775 16.775 0 0 1 13.681 13.056 A 19.582 19.582 0 0 1 17.902 13.534 A 24.263 24.263 0 0 1 20.208 14.167 A 13.02 13.02 0 0 1 25.972 17.917 L 23.889 26.111 Q 22.222 23.056 19.375 21.25 Q 16.528 19.444 13.472 19.444 Q 10.625 19.444 8.993 21.042 A 5.718 5.718 0 0 0 7.892 22.504 A 4.772 4.772 0 0 0 7.361 24.722 Q 7.361 26.389 8.472 27.708 Q 9.393 28.802 11.078 29.562 A 12.132 12.132 0 0 0 11.806 29.861 L 17.431 32.014 A 17.33 17.33 0 0 1 18.567 32.478 Q 19.151 32.739 19.813 33.074 A 43.201 43.201 0 0 1 21.215 33.819 Q 23.472 35.069 25.208 37.431 Q 26.944 39.792 26.944 43.819 A 13.096 13.096 0 0 1 26.246 48.182 A 11.205 11.205 0 0 1 23.021 52.917 Q 19.097 56.389 13.125 56.389 A 19.212 19.212 0 0 1 9.388 56.004 A 25.519 25.519 0 0 1 6.285 55.174 Q 2.639 53.958 0 51.111 Z M 80.556 51.111 L 82.639 42.917 A 15.224 15.224 0 0 0 86.847 47.559 A 14.789 14.789 0 0 0 87.639 48.09 A 12.105 12.105 0 0 0 94.167 50 A 10.847 10.847 0 0 0 96.043 49.848 Q 97.056 49.67 97.855 49.282 A 4.948 4.948 0 0 0 99.167 48.368 A 5.362 5.362 0 0 0 100.832 44.485 A 6.618 6.618 0 0 0 100.833 44.375 A 6.516 6.516 0 0 0 100.665 42.842 A 4.009 4.009 0 0 0 99.063 40.417 Q 97.788 39.517 96.711 39.013 A 8.667 8.667 0 0 0 95.903 38.681 L 90.278 36.528 A 22.738 22.738 0 0 1 89.072 35.989 Q 88.516 35.723 87.897 35.397 A 50.115 50.115 0 0 1 86.597 34.688 A 10.847 10.847 0 0 1 83.79 32.384 A 13.429 13.429 0 0 1 82.847 31.181 Q 81.419 29.132 81.268 25.973 A 15.98 15.98 0 0 1 81.25 25.208 Q 81.25 21.875 82.847 19.097 Q 84.444 16.319 87.361 14.688 A 12.633 12.633 0 0 1 91.526 13.266 A 16.775 16.775 0 0 1 94.236 13.056 A 19.582 19.582 0 0 1 98.457 13.534 A 24.263 24.263 0 0 1 100.764 14.167 A 13.02 13.02 0 0 1 106.528 17.917 L 104.444 26.111 Q 102.778 23.056 99.931 21.25 Q 97.083 19.444 94.028 19.444 Q 91.181 19.444 89.549 21.042 A 5.718 5.718 0 0 0 88.447 22.504 A 4.772 4.772 0 0 0 87.917 24.722 Q 87.917 26.389 89.028 27.708 Q 89.949 28.802 91.634 29.562 A 12.132 12.132 0 0 0 92.361 29.861 L 97.986 32.014 A 17.33 17.33 0 0 1 99.123 32.478 Q 99.706 32.739 100.368 33.074 A 43.201 43.201 0 0 1 101.771 33.819 Q 104.028 35.069 105.764 37.431 Q 107.5 39.792 107.5 43.819 A 13.096 13.096 0 0 1 106.802 48.182 A 11.205 11.205 0 0 1 103.576 52.917 Q 99.653 56.389 93.681 56.389 A 19.212 19.212 0 0 1 89.944 56.004 A 25.519 25.519 0 0 1 86.84 55.174 Q 83.194 53.958 80.556 51.111 Z M 130.694 55.556 L 123.194 55.556 L 123.194 20.139 L 113.75 20.139 L 113.75 13.889 L 123.403 13.889 L 123.403 0 L 130.486 0 L 130.486 13.889 L 140.833 13.889 L 140.833 20.139 L 130.694 20.139 L 130.694 55.556 Z M 161.667 30.556 L 175.486 30.556 A 43.394 43.394 0 0 1 178.507 30.66 A 144.292 144.292 0 0 1 181.528 30.903 Q 180.556 26.042 176.667 22.882 Q 172.778 19.722 167.847 19.722 A 13.025 13.025 0 0 0 158.958 23.09 A 15.371 15.371 0 0 0 155.205 27.961 A 14.677 14.677 0 0 0 154.097 31.181 Q 157.847 30.556 161.667 30.556 Z" vector-effect="non-scaling-stroke"/>
  </g>
  <g id="g-1" stroke-linecap="round" fill-rule="evenodd" font-size="9pt" stroke="#004ef7" stroke-width="0.3mm" fill="none" style="stroke:#004ef7;stroke-width:0.3mm;fill:none" transform="matrix(1, 0, 0, 1, 327.4608459472656, 99.53861999511719)">
    <path d="M 3.248 10.418 A 5.541 5.541 0 0 0 5.417 10.834 A 6.853 6.853 0 0 0 5.781 10.824 A 5.13 5.13 0 0 0 9.306 9.271 A 5.247 5.247 0 0 0 10.452 7.526 A 5.675 5.675 0 0 0 10.834 5.417 A 6.853 6.853 0 0 0 10.834 5.381 A 5.292 5.292 0 0 0 9.306 1.563 Q 7.778 0 5.417 0 A 6.67 6.67 0 0 0 5.346 0.001 A 5.226 5.226 0 0 0 1.563 1.563 A 5.25 5.25 0 0 0 0.416 3.248 A 5.541 5.541 0 0 0 0 5.417 A 6.67 6.67 0 0 0 0.001 5.488 A 5.226 5.226 0 0 0 1.563 9.271 A 5.25 5.25 0 0 0 3.248 10.418 Z" vector-effect="non-scaling-stroke"/>
  </g>
  <g id="g-3" stroke-linecap="round" fill-rule="evenodd" font-size="9pt" stroke="#000000" stroke-width="0.3mm" fill="none" style="stroke:#000000;stroke-width:0.3mm;fill:none" transform="matrix(1, 0, 0, 1, 343.0342102050781, 44.2441291809082)">
    <path d="M 162.432 83.125 L 164.515 74.653 A 15.498 15.498 0 0 0 169.212 79.02 A 18.41 18.41 0 0 0 170.071 79.514 A 15.571 15.571 0 0 0 175.534 81.232 A 19.76 19.76 0 0 0 178.057 81.389 A 18.934 18.934 0 0 0 183.129 80.743 A 14.319 14.319 0 0 0 189.411 77.153 A 14.221 14.221 0 0 0 193.692 67.779 A 19.245 19.245 0 0 0 193.751 66.25 L 193.751 61.181 Q 190.974 63.958 187.189 65.59 A 20.212 20.212 0 0 1 179.099 67.222 A 19.611 19.611 0 0 1 168.682 64.34 Q 163.96 61.458 161.147 56.597 Q 158.335 51.736 158.335 45.833 Q 158.335 39.931 161.147 35.069 Q 163.96 30.208 168.682 27.326 A 19.611 19.611 0 0 1 179.099 24.444 A 20.592 20.592 0 0 1 187.189 26.042 Q 190.974 27.639 193.751 30.486 L 193.751 25 L 200.696 25 L 200.696 66.667 A 24.507 24.507 0 0 1 200.047 72.435 A 18.861 18.861 0 0 1 197.536 78.333 A 20.87 20.87 0 0 1 189.237 85.764 A 24.498 24.498 0 0 1 178.126 88.333 A 28.618 28.618 0 0 1 173.01 87.894 A 23.172 23.172 0 0 1 169.411 86.944 A 24.291 24.291 0 0 1 163.408 83.859 A 22.561 22.561 0 0 1 162.432 83.125 Z M 221.529 66.667 L 214.029 66.667 L 214.029 25 L 220.974 25 L 220.974 31.736 Q 223.265 28.056 226.911 26.111 A 16.492 16.492 0 0 1 234.793 24.167 Q 239.237 24.167 243.022 26.354 A 16.308 16.308 0 0 1 248.516 31.61 A 19.78 19.78 0 0 1 249.168 32.674 A 17.309 17.309 0 0 1 251.077 37.882 Q 251.515 40.056 251.529 42.547 A 29.342 29.342 0 0 1 251.529 42.708 L 251.529 66.667 L 244.029 66.667 L 244.029 43.75 A 13.779 13.779 0 0 0 241.078 35.035 A 9.61 9.61 0 0 0 234.118 31.313 A 13.889 13.889 0 0 0 232.779 31.25 A 11.14 11.14 0 0 0 225.305 34.109 A 14.4 14.4 0 0 0 224.967 34.41 Q 221.529 37.569 221.529 43.542 L 221.529 66.667 Z M 34.862 29.931 L 34.862 0 L 42.362 0 L 42.362 66.667 L 35.418 66.667 L 35.418 61.181 Q 32.64 63.958 28.855 65.59 A 20.212 20.212 0 0 1 20.765 67.222 A 19.611 19.611 0 0 1 10.349 64.34 Q 5.626 61.458 2.814 56.597 Q 0.001 51.736 0.001 45.833 Q 0.001 39.931 2.814 35.069 Q 5.626 30.208 10.349 27.326 A 19.611 19.611 0 0 1 20.765 24.444 A 20.389 20.389 0 0 1 28.474 25.903 A 20.774 20.774 0 0 1 34.862 29.931 Z M 95.001 44.861 L 95.001 47.917 L 67.779 47.917 Q 65.974 47.917 64.099 47.778 A 47.061 47.061 0 0 1 60.418 47.361 A 14.686 14.686 0 0 0 65.453 56.667 A 14.906 14.906 0 0 0 75.626 60.417 A 15.465 15.465 0 0 0 82.987 58.611 A 15.539 15.539 0 0 0 87.646 54.898 A 14.892 14.892 0 0 0 88.474 53.819 L 90.557 62.361 A 22.491 22.491 0 0 1 84.076 66.017 A 25.409 25.409 0 0 1 83.717 66.146 A 24.427 24.427 0 0 1 75.59 67.5 A 27.715 27.715 0 0 1 75.557 67.5 A 25.038 25.038 0 0 1 68.372 66.499 A 21.908 21.908 0 0 1 63.855 64.583 A 21.445 21.445 0 0 1 55.73 56.632 Q 52.779 51.597 52.779 45.417 A 21.055 21.055 0 0 1 54.517 36.851 A 20.433 20.433 0 0 1 55.626 34.687 Q 58.474 29.861 63.3 27.014 Q 68.126 24.167 73.96 24.167 A 20.872 20.872 0 0 1 84.515 26.91 A 21.087 21.087 0 0 1 92.154 34.306 Q 95.001 38.958 95.001 44.861 Z M 102.64 62.222 L 104.724 54.028 A 15.224 15.224 0 0 0 108.931 58.67 A 14.789 14.789 0 0 0 109.724 59.201 A 12.105 12.105 0 0 0 116.251 61.111 A 10.847 10.847 0 0 0 118.128 60.96 Q 119.141 60.781 119.94 60.393 A 4.948 4.948 0 0 0 121.251 59.479 A 5.362 5.362 0 0 0 122.917 55.596 A 6.618 6.618 0 0 0 122.918 55.486 A 6.516 6.516 0 0 0 122.749 53.953 A 4.009 4.009 0 0 0 121.147 51.528 Q 119.873 50.628 118.796 50.124 A 8.667 8.667 0 0 0 117.987 49.792 L 112.362 47.639 A 22.738 22.738 0 0 1 111.156 47.1 Q 110.6 46.834 109.982 46.509 A 50.115 50.115 0 0 1 108.682 45.799 A 10.847 10.847 0 0 1 105.874 43.496 A 13.429 13.429 0 0 1 104.932 42.292 Q 103.504 40.243 103.353 37.084 A 15.98 15.98 0 0 1 103.335 36.319 Q 103.335 32.986 104.932 30.208 Q 106.529 27.431 109.446 25.799 A 12.633 12.633 0 0 1 113.61 24.377 A 16.775 16.775 0 0 1 116.321 24.167 A 19.582 19.582 0 0 1 120.542 24.645 A 24.263 24.263 0 0 1 122.849 25.278 A 13.02 13.02 0 0 1 128.612 29.028 L 126.529 37.222 Q 124.862 34.167 122.015 32.361 Q 119.168 30.556 116.112 30.556 Q 113.265 30.556 111.633 32.153 A 5.718 5.718 0 0 0 110.532 33.615 A 4.772 4.772 0 0 0 110.001 35.833 Q 110.001 37.5 111.112 38.819 Q 112.034 39.913 113.719 40.673 A 12.132 12.132 0 0 0 114.446 40.972 L 120.071 43.125 A 17.33 17.33 0 0 1 121.207 43.589 Q 121.791 43.85 122.453 44.185 A 43.201 43.201 0 0 1 123.855 44.931 Q 126.112 46.181 127.849 48.542 Q 129.585 50.903 129.585 54.931 A 13.096 13.096 0 0 1 128.886 59.294 A 11.205 11.205 0 0 1 125.661 64.028 Q 121.737 67.5 115.765 67.5 A 19.212 19.212 0 0 1 112.029 67.115 A 25.519 25.519 0 0 1 108.925 66.285 Q 105.279 65.069 102.64 62.222 Z M 147.918 66.667 L 140.418 66.667 L 140.418 25 L 147.918 25 L 147.918 66.667 Z M 21.737 60.417 A 13.483 13.483 0 0 0 28.925 58.438 A 14.775 14.775 0 0 0 34.064 53.16 Q 35.974 49.861 35.974 45.833 A 14.641 14.641 0 0 0 34.877 40.147 A 14.058 14.058 0 0 0 34.064 38.507 Q 32.154 35.208 28.925 33.229 A 13.483 13.483 0 0 0 21.737 31.25 A 13.483 13.483 0 0 0 14.55 33.229 A 14.775 14.775 0 0 0 9.411 38.507 Q 7.501 41.806 7.501 45.833 A 14.641 14.641 0 0 0 8.598 51.519 A 14.058 14.058 0 0 0 9.411 53.16 Q 11.321 56.458 14.55 58.438 A 13.483 13.483 0 0 0 21.737 60.417 Z M 180.071 60.417 A 13.483 13.483 0 0 0 187.258 58.438 A 14.775 14.775 0 0 0 192.397 53.16 Q 194.307 49.861 194.307 45.833 A 14.641 14.641 0 0 0 193.21 40.147 A 14.058 14.058 0 0 0 192.397 38.507 Q 190.487 35.208 187.258 33.229 A 13.483 13.483 0 0 0 180.071 31.25 A 13.483 13.483 0 0 0 172.883 33.229 A 14.775 14.775 0 0 0 167.744 38.507 Q 165.835 41.806 165.835 45.833 A 14.641 14.641 0 0 0 166.931 51.519 A 14.058 14.058 0 0 0 167.744 53.16 Q 169.654 56.458 172.883 58.438 A 13.483 13.483 0 0 0 180.071 60.417 Z M 67.779 41.667 L 81.599 41.667 A 43.394 43.394 0 0 1 84.619 41.771 A 144.292 144.292 0 0 1 87.64 42.014 Q 86.668 37.153 82.779 33.993 Q 78.89 30.833 73.96 30.833 A 13.025 13.025 0 0 0 65.071 34.201 A 15.371 15.371 0 0 0 61.317 39.072 A 14.677 14.677 0 0 0 60.21 42.292 Q 63.96 41.667 67.779 41.667 Z M 140.672 16.087 A 4.817 4.817 0 0 0 144.168 17.5 A 6.256 6.256 0 0 0 144.302 17.499 A 4.765 4.765 0 0 0 147.744 16.042 A 5.009 5.009 0 0 0 148.692 14.7 A 5.036 5.036 0 0 0 149.168 12.5 Q 149.168 10.347 147.744 8.924 A 4.716 4.716 0 0 0 146.019 7.81 A 5.339 5.339 0 0 0 144.168 7.5 A 4.882 4.882 0 0 0 140.626 8.924 Q 139.168 10.347 139.168 12.5 A 5.912 5.912 0 0 0 139.168 12.565 A 4.815 4.815 0 0 0 140.626 16.042 A 5.739 5.739 0 0 0 140.672 16.087 Z" vector-effect="non-scaling-stroke"/>
  </g>
  <g id="g-4" stroke-linecap="round" fill-rule="evenodd" font-size="9pt" stroke="#004ef7" stroke-width="0.3mm" fill="none" style="stroke:#004ef7;stroke-width:0.3mm;fill:none" transform="matrix(1, 0, 0, 1, 599.3982543945312, 47.216426849365234)">
    <path d="M 0 80 L 0 73.75 A 16.983 16.983 0 0 0 5.833 72.743 A 8.664 8.664 0 0 0 9.713 69.9 A 11.185 11.185 0 0 0 10.382 68.959 Q 12.135 66.208 12.153 61.006 A 31.257 31.257 0 0 0 12.153 60.903 Q 12.153 57.986 11.736 55.486 Q 11.319 52.986 11.319 50.486 A 17.598 17.598 0 0 1 11.516 47.771 Q 11.745 46.306 12.241 45.108 A 8.783 8.783 0 0 1 12.986 43.681 A 9.318 9.318 0 0 1 17.431 40 Q 14.653 38.82 12.986 36.285 A 9.261 9.261 0 0 1 11.818 33.639 Q 11.491 32.452 11.378 31.047 A 19.229 19.229 0 0 1 11.319 29.514 Q 11.319 27.014 11.736 24.514 Q 12.153 22.014 12.153 19.098 Q 12.153 13.75 10.382 11.007 A 9.969 9.969 0 0 0 8.368 8.706 A 8.491 8.491 0 0 0 5.833 7.257 A 16.983 16.983 0 0 0 0 6.25 L 0 0 A 24.629 24.629 0 0 1 6.007 0.71 A 21.18 21.18 0 0 1 9.722 2.014 A 15.932 15.932 0 0 1 16.667 8.091 A 15.64 15.64 0 0 1 18.614 12.799 Q 19.1 14.801 19.206 17.138 A 29.349 29.349 0 0 1 19.236 18.473 A 37.28 37.28 0 0 1 18.894 23.588 A 34.113 34.113 0 0 1 18.819 24.098 A 35.472 35.472 0 0 0 18.429 28.038 A 30.973 30.973 0 0 0 18.403 29.306 Q 18.403 32.115 19.193 34.022 A 6.579 6.579 0 0 0 20.382 35.938 A 13.306 13.306 0 0 0 22.22 37.599 Q 23.206 38.346 24.442 39.053 A 29.231 29.231 0 0 0 26.25 40 A 27.68 27.68 0 0 0 23.802 41.326 Q 21.681 42.627 20.382 44.063 A 6.802 6.802 0 0 0 19.029 46.409 Q 18.667 47.441 18.514 48.713 A 16.644 16.644 0 0 0 18.403 50.695 A 33.102 33.102 0 0 0 18.637 54.562 A 38.086 38.086 0 0 0 18.819 55.903 Q 19.236 58.611 19.236 61.528 A 25.165 25.165 0 0 1 18.875 65.913 Q 18.273 69.315 16.667 71.875 A 15.865 15.865 0 0 1 9.722 77.986 A 22.15 22.15 0 0 1 2.303 79.903 A 26.809 26.809 0 0 1 0 80 Z" vector-effect="non-scaling-stroke"/>
  </g>
</svg>